<svg width="48" height="48" viewBox="0 0 48 48" fill="none" xmlns="http://www.w3.org/2000/svg">
<path fill-rule="evenodd" clip-rule="evenodd" d="M17.1911 3.49995C16.763 4.12238 16.406 4.82783 16.1392 5.61629C15.029 8.89605 11.9433 11.128 8.48077 11.128H7.91268C7.21095 11.128 6.54714 11.2101 5.9249 11.3626C5.49014 5.48375 11.7215 0.973735 17.1911 3.49995ZM30.8186 3.49998C30.3784 3.7033 29.9431 3.9522 29.5167 4.24964L28.7579 4.77879C25.9022 6.77045 22.1076 6.77045 19.2519 4.77879L18.4932 4.24963C18.0667 3.95219 17.6314 3.70328 17.1911 3.49995C20.4009 -1.16666 27.6089 -1.16665 30.8186 3.49998ZM42.0849 11.3626C41.4626 11.2101 40.7988 11.128 40.0971 11.128H39.529C36.0664 11.128 32.9807 8.89605 31.8706 5.61629C31.6037 4.82784 31.2467 4.1224 30.8186 3.49998C36.2883 0.973717 42.5197 5.48374 42.0849 11.3626ZM46.2718 23.9857C45.8156 23.4327 45.2651 22.9211 44.615 22.4677C41.7331 20.4578 40.5305 16.7708 41.657 13.4427C41.8959 12.7369 42.0348 12.0407 42.0849 11.3626C47.6131 12.7178 49.8603 19.6353 46.2718 23.9857ZM42.0849 36.6089C42.0347 35.9308 41.8959 35.2346 41.657 34.5288C40.5305 31.2007 41.733 27.5137 44.615 25.5038C45.2651 25.0504 45.8156 24.5388 46.2718 23.9857C49.8604 28.3362 47.6131 35.2537 42.0849 36.6089ZM30.8186 44.4716C31.2467 43.8491 31.6037 43.1437 31.8706 42.3552C32.9808 39.0755 36.0664 36.8435 39.529 36.8435H40.0971C40.7988 36.8435 41.4626 36.7614 42.0849 36.6089C42.5196 42.4878 36.2882 46.9978 30.8186 44.4716ZM17.1912 44.4715C17.6314 44.2682 18.0667 44.0193 18.4931 43.7219L19.2519 43.1927C22.1076 41.2011 25.9022 41.2011 28.7579 43.1927L29.5166 43.7219C29.9431 44.0193 30.3784 44.2682 30.8186 44.4716C27.6089 49.1382 20.4009 49.1382 17.1912 44.4715ZM5.92488 36.6089C6.54713 36.7614 7.21096 36.8435 7.91271 36.8435H8.4808C11.9433 36.8435 15.029 39.0755 16.1392 42.3552C16.4061 43.1437 16.763 43.8491 17.1912 44.4715C11.7215 46.9978 5.4901 42.4878 5.92488 36.6089ZM5.92488 36.6089C0.396677 35.2537 -1.85055 28.3362 1.73797 23.9858C2.19418 24.5388 2.7447 25.0504 3.39479 25.5038C6.2767 27.5137 7.47924 31.2007 6.35273 34.5288C6.11384 35.2346 5.97502 35.9308 5.92488 36.6089ZM1.73797 23.9858C-1.8506 19.6353 0.396653 12.7178 5.9249 11.3626C5.97505 12.0407 6.11387 12.7369 6.35276 13.4427C7.47927 16.7708 6.27673 20.4578 3.39482 22.4677C2.74471 22.9211 2.19418 23.4327 1.73797 23.9858ZM23.8864 40.8493C33.6919 40.8493 41.4206 33.1343 41.4206 23.8854C41.4206 14.6364 33.6919 6.92138 23.8864 6.92138C14.0809 6.92138 6.35218 14.6364 6.35218 23.8854C6.35218 33.1343 14.0809 40.8493 23.8864 40.8493ZM23.8864 45.8493C36.3317 45.8493 46.4206 36.0157 46.4206 23.8854C46.4206 11.755 36.3317 1.92138 23.8864 1.92138C11.4411 1.92138 1.35218 11.755 1.35218 23.8854C1.35218 36.0157 11.4411 45.8493 23.8864 45.8493Z" fill="white"/>
<circle cx="24" cy="24" r="5" fill="white"/>
<circle cx="24" cy="24" r="9.5" stroke="white"/>
<path d="M24 7.5L20 24" stroke="white" stroke-width="2" stroke-linecap="round"/>
<path d="M28 24L24 40.5" stroke="white" stroke-width="2" stroke-linecap="round"/>
</svg>
